<svg xmlns="http://www.w3.org/2000/svg" version="1.0" width="512.000000pt" height="512.000000pt" viewBox="0 0 512.000000 512.000000" preserveAspectRatio="xMidYMid meet">

<g transform="translate(0.000000,512.000000) scale(0.100000,-0.100000)" fill="#000000" stroke="none">
<path d="M2321 5109 c-486 -43 -989 -249 -1376 -564 -114 -92 -294 -274 -384 -387 -229 -287 -417 -675 -495 -1023 -49 -218 -60 -325 -60 -575 0 -250 11 -357 60 -575 79 -355 272 -749 509 -1040 92 -114 274 -294 387 -384 287 -229 675 -417 1023 -495 218 -49 325 -60 575 -60 250 0 357 11 575 60 261 58 603 204 828 353 389 259 688 599 893 1016 165 337 246 658 261 1033 23 598 -168 1183 -545 1672 -84 109 -323 348 -432 432 -528 407 -1164 595 -1819 537z m300 -216 c101 -92 220 -431 294 -842 26 -145 68 -451 63 -456 -2 -2 -95 -8 -208 -14 -143 -8 -258 -8 -375 -1 -159 9 -255 19 -255 25 0 1 9 72 20 156 57 434 143 776 250 995 51 104 111 174 150 174 11 0 38 -17 61 -37z m-376 -43 c-104 -202 -205 -594 -261 -1020 -15 -113 -28 -206 -29 -208 -4 -4 -170 29 -288 59 -121 30 -326 96 -340 108 -18 17 130 328 231 486 168 263 397 474 621 572 42 18 77 33 79 33 1 0 -4 -13 -13 -30z m790 -51 c291 -165 549 -487 720 -893 25 -60 42 -113 38 -117 -13 -11 -181 -66 -304 -99 -109 -29 -320 -73 -325 -67 -1 1 -11 81 -24 177 -53 423 -140 778 -245 1007 l-33 72 51 -20 c29 -11 84 -38 122 -60z m-1376 -106 c-106 -110 -178 -200 -263 -328 -73 -110 -183 -319 -222 -423 -14 -36 -28 -70 -31 -75 -9 -15 -367 189 -387 222 -11 17 240 260 364 353 124 93 250 173 370 233 77 39 228 104 244 105 5 0 -29 -39 -75 -87z m1802 61 c176 -71 461 -242 599 -359 86 -73 300 -287 300 -300 0 -28 -371 -247 -384 -227 -2 4 -16 39 -31 77 -65 175 -223 445 -347 597 -28 35 -89 102 -137 151 -47 48 -81 87 -75 87 6 0 39 -12 75 -26z m-2716 -888 c50 -33 145 -88 213 -124 67 -35 122 -68 122 -73 0 -5 -13 -58 -30 -117 -63 -227 -106 -497 -127 -792 l-8 -105 -360 0 -360 0 3 70 c8 183 66 458 137 651 79 213 280 575 308 556 7 -4 53 -34 102 -66z m3815 -36 c74 -115 175 -319 225 -454 72 -194 129 -469 137 -651 l3 -70 -360 0 -360 0 -7 105 c-21 294 -63 560 -124 781 -38 141 -39 149 -21 149 19 0 261 134 351 195 44 30 83 51 87 47 4 -4 35 -50 69 -102z m-3018 -311 c61 -17 173 -44 250 -59 77 -16 141 -30 143 -32 2 -1 -3 -88 -11 -193 -8 -104 -18 -278 -22 -385 l-7 -195 -394 -3 -394 -2 7 122 c13 231 51 481 108 703 17 66 32 123 34 127 3 4 43 -6 90 -22 47 -16 136 -43 196 -61z m2356 -36 c59 -234 94 -463 108 -711 l7 -122 -394 2 -394 3 -12 275 c-7 151 -16 326 -20 388 -8 108 -8 113 12 117 11 3 79 16 150 31 134 27 308 74 430 118 39 13 72 25 75 25 3 1 20 -56 38 -126z m-1437 -90 c161 -4 296 -2 389 6 78 7 143 11 145 9 5 -6 24 -340 31 -550 l7 -208 -472 0 -471 0 0 128 c0 124 13 397 26 556 l6 78 47 -6 c25 -4 157 -9 292 -13z m-1539 -1033 c21 -294 63 -560 124 -781 38 -141 39 -149 21 -149 -18 0 -260 -134 -342 -189 -38 -26 -75 -50 -81 -54 -8 -4 -35 28 -72 86 -210 323 -335 686 -372 1076 -5 57 -7 107 -4 112 3 5 159 8 362 7 l357 -3 7 -105z m980 -90 c4 -107 14 -280 22 -385 8 -104 13 -192 11 -193 -2 -2 -66 -16 -143 -32 -162 -33 -286 -66 -431 -115 -58 -19 -105 -34 -106 -32 -1 1 -15 56 -32 122 -59 225 -95 467 -109 713 l-7 122 394 -2 394 -3 7 -195z m1125 -32 c-7 -220 -24 -518 -31 -526 -2 -1 -66 2 -142 9 -136 11 -568 7 -680 -7 l-51 -6 -11 213 c-18 331 -24 528 -17 539 4 6 170 10 472 10 l466 0 -6 -232z m979 105 c-8 -154 -29 -330 -57 -473 -19 -101 -77 -338 -85 -352 -2 -4 -50 9 -107 28 -143 48 -267 81 -429 114 -77 16 -141 30 -142 32 -2 1 2 84 9 183 7 99 16 270 20 380 4 110 9 203 12 208 2 4 180 7 395 7 l391 0 -7 -127z m916 52 c-8 -183 -66 -458 -137 -651 -51 -137 -152 -340 -227 -456 -35 -54 -66 -98 -70 -98 -4 0 -51 29 -105 64 -54 35 -152 92 -218 127 -66 34 -122 64 -124 66 -2 1 12 63 32 135 61 227 108 519 122 763 4 60 9 113 11 117 3 5 166 7 362 6 l357 -3 -3 -70z m-2144 -856 c109 -6 198 -12 199 -13 5 -4 -36 -307 -57 -426 -76 -436 -194 -778 -301 -875 -22 -19 -48 -35 -59 -35 -39 0 -99 70 -150 174 -107 219 -191 556 -250 1000 -12 87 -20 160 -18 162 4 3 281 20 381 23 32 0 147 -4 255 -10z m-799 -216 c54 -425 141 -781 246 -1010 l33 -72 -51 20 c-328 128 -648 490 -842 953 -25 60 -42 113 -38 117 32 28 514 159 619 168 6 1 19 -68 33 -176z m1272 161 c174 -32 515 -129 542 -153 4 -4 -13 -57 -38 -117 -194 -464 -514 -825 -843 -953 l-52 -21 15 30 c105 202 205 594 261 1023 15 114 29 207 30 207 1 0 39 -7 85 -16z m-2081 -296 c35 -99 140 -303 214 -418 82 -126 142 -203 259 -332 49 -54 86 -98 84 -98 -15 0 -169 70 -262 119 -128 67 -229 131 -335 211 -123 94 -370 332 -370 357 0 24 362 239 381 227 3 -2 16 -32 29 -66z m3106 -93 c45 -29 85 -58 88 -64 4 -5 -51 -68 -121 -138 -229 -230 -498 -410 -786 -526 l-87 -35 94 101 c124 134 174 197 261 328 80 119 166 281 215 404 17 44 34 83 37 88 6 10 186 -86 299 -158z"/>
</g>
</svg>