<svg xmlns="http://www.w3.org/2000/svg" version="1.0" width="512.000000pt" height="512.000000pt" viewBox="0 0 512.000000 512.000000" preserveAspectRatio="xMidYMid meet">
<g transform="translate(0.000000,512.000000) scale(0.100000,-0.100000)" fill="#000000" stroke="none">
<path d="M2410 5110 c-1076 -60 -2019 -817 -2308 -1855 -108 -387 -124 -815 -46 -1205 151 -750 658 -1416 1344 -1764 376 -191 734 -277 1155 -277 202 0 316 10 485 42 1008 192 1822 996 2024 1999 63 316 63 704 0 1020 -115 571 -448 1115 -906 1481 -500 400 -1108 594 -1748 559z m10 -705 l0 -425 -485 0 c-267 0 -485 3 -485 6 0 16 94 176 153 263 159 233 381 426 585 512 61 25 196 66 225 68 4 1 7 -190 7 -424z m405 393 c253 -73 504 -273 694 -553 63 -93 151 -243 151 -258 0 -4 -218 -7 -485 -7 l-485 0 0 425 0 425 28 -6 c15 -3 59 -15 97 -26z m-1358 -285 c-88 -110 -183 -259 -255 -400 l-67 -133 -183 0 -184 0 30 38 c104 130 282 294 441 406 96 68 240 154 259 155 7 1 -12 -29 -41 -66z m2225 26 c220 -124 474 -338 620 -521 l30 -38 -184 0 -183 0 -68 134 c-74 145 -167 291 -253 399 -30 37 -51 67 -45 67 5 0 42 -19 83 -41z m-2687 -951 c-66 -226 -116 -504 -130 -713 -3 -49 -8 -109 -11 -132 l-5 -43 -285 0 -284 0 0 35 c0 68 32 260 64 389 42 164 91 297 168 454 l61 122 227 0 227 0 -32 -112z m1415 -388 l0 -500 -640 0 -640 0 0 48 c0 73 28 315 50 442 26 141 50 239 97 393 l36 117 549 0 548 0 0 -500z m1413 383 c79 -253 147 -642 147 -839 l0 -44 -640 0 -640 0 0 500 0 500 548 0 549 0 36 -117z m765 -5 c77 -157 126 -290 167 -453 33 -131 65 -323 65 -389 l0 -36 -284 0 -285 0 -5 43 c-3 23 -8 83 -11 132 -14 209 -64 487 -130 713 l-32 112 227 0 227 0 61 -122z m-3734 -1210 c3 -29 10 -111 17 -183 19 -217 72 -490 138 -702 l19 -63 -227 0 -228 0 -60 123 c-78 157 -127 290 -169 453 -32 129 -64 321 -64 389 l0 35 284 0 285 0 5 -52z m1556 -448 l0 -500 -548 0 -549 0 -36 118 c-79 252 -147 641 -147 838 l0 44 640 0 640 0 0 -500z m1560 456 c0 -197 -68 -586 -147 -838 l-36 -118 -549 0 -548 0 0 500 0 500 640 0 640 0 0 -44z m850 8 c0 -66 -32 -258 -65 -389 -40 -162 -90 -294 -168 -452 l-60 -123 -227 0 -227 0 32 113 c66 225 116 503 130 712 3 50 8 109 11 133 l5 42 285 0 284 0 0 -36z m-3618 -1377 c73 -143 168 -292 255 -399 29 -38 50 -68 45 -68 -16 0 -119 60 -220 128 -180 121 -370 291 -482 432 l-32 40 184 0 183 0 67 -133z m1208 -292 l0 -425 -32 6 c-70 13 -230 73 -300 113 -188 108 -359 274 -505 491 -49 74 -133 220 -133 233 0 4 218 7 485 7 l485 0 0 -425z m1250 418 c0 -13 -84 -159 -133 -233 -146 -217 -317 -383 -505 -491 -70 -40 -230 -100 -299 -113 l-33 -5 0 424 0 425 485 0 c267 0 485 -3 485 -7z m640 -33 c-112 -141 -302 -311 -482 -432 -101 -68 -204 -128 -220 -128 -5 0 16 30 46 68 86 107 179 253 253 398 l68 134 183 0 184 0 -32 -40z"/>
</g>
</svg>